# xmcd
#
# Track frame offsets:
# 150
# 17767
# 40100
# 58670
# 73412
# 88850
# 105970
# 120585
# 136985
# 155575
# 175660
# 195735
# 216170
#
# Disc length: 3054 seconds
#
#
# Revision: 0
# Processed by: cddbd v1.5.1PL2 Copyright (c) Steve Scherf et al.
# Submitted via: FreeRIP 2.945 
#
DISCID=b40bec0d
DTITLE=Coração Sertanejo - Nativa  - O amor do brasil
DYEAR=1900
DGENRE=Country
TTITLE0=O que é que eu faço - Zezé Di Camargo and Luciano
TTITLE1=Evidências - Chitaozinho and Xororó
TTITLE2=Embriagado de amor  - Daniel
TTITLE3=Todas as coisas do mundo - Leonardo
TTITLE4=Dormi na praça - Bruno e Marrone
TTITLE5=Mil corações - Gian and Giovani
TTITLE6=Cunhada boa  - Sérgio Reis
TTITLE7=Faz amor comigo - Roberta Miranda
TTITLE8=Seguir em frente - Rick and Renner
TTITLE9=Agenda rabiscada - Cleiton and Camargo
TTITLE10=Amor Perfeito - Dois A Um
TTITLE11=Por te amar assim - Marlon and Maicon
TTITLE12=Mocinhas da cidade  - Fred e Pedrito
EXTD=
EXTT0=
EXTT1=
EXTT2=
EXTT3=
EXTT4=
EXTT5=
EXTT6=
EXTT7=
EXTT8=
EXTT9=
EXTT10=
EXTT11=
EXTT12=
PLAYORDER=
